<?xml version="1.0" standalone="no"?>
<!DOCTYPE svg PUBLIC "-//W3C//DTD SVG 20010904//EN"
 "http://www.w3.org/TR/2001/REC-SVG-20010904/DTD/svg10.dtd">
<svg version="1.0" xmlns="http://www.w3.org/2000/svg"
 width="840.000000pt" height="859.000000pt" viewBox="0 0 840.000000 859.000000"
 preserveAspectRatio="xMidYMid meet">
<metadata>
Created by potrace 1.16, written by Peter Selinger 2001-2019
</metadata>
<g transform="translate(0.000000,859.000000) scale(0.100000,-0.100000)"
fill="#000000" stroke="none">
<path d="M3095 7234 c-447 -59 -949 -214 -1279 -395 -139 -77 -266 -159 -331
-214 -199 -169 -498 -833 -714 -1585 -201 -703 -317 -1369 -351 -2021 -6 -115
-6 -199 0 -219 29 -103 259 -376 425 -505 223 -174 506 -323 815 -430 267 -92
636 -177 782 -179 87 -1 88 -1 122 34 19 19 87 107 151 195 101 137 114 160
98 167 -10 3 -83 28 -163 53 -371 119 -701 281 -948 464 -115 85 -126 105
-130 221 -3 85 -1 100 21 140 33 63 72 83 172 88 103 5 133 -4 226 -74 215
-162 575 -336 899 -433 728 -221 1462 -258 2190 -111 539 109 1062 324 1358
558 63 49 103 62 198 62 93 0 148 -27 182 -91 21 -39 23 -55 20 -140 -3 -86
-6 -99 -30 -131 -57 -74 -268 -213 -505 -332 -215 -108 -381 -174 -636 -251
-59 -18 -85 -30 -81 -38 30 -50 244 -334 271 -357 40 -35 65 -37 214 -15 257
39 620 138 849 232 111 46 346 164 429 216 131 81 288 207 391 313 107 110
233 283 250 345 22 76 -25 649 -86 1044 -166 1075 -581 2301 -923 2724 -69 86
-294 232 -521 340 -307 145 -773 277 -1142 324 -104 13 -109 13 -145 -8 -40
-22 -92 -100 -77 -115 5 -4 41 -13 79 -19 205 -35 563 -139 812 -237 171 -67
500 -234 557 -283 39 -34 56 -86 56 -173 0 -99 -21 -153 -71 -189 -31 -22 -44
-24 -144 -24 l-110 0 -110 64 c-460 270 -1100 447 -1776 492 -669 45 -1580
-163 -2136 -487 l-118 -69 -110 0 c-99 0 -113 2 -143 23 -52 38 -72 88 -72
184 0 124 20 158 133 226 125 75 342 182 478 236 256 100 614 204 822 237 42
7 77 18 77 23 -1 29 -49 93 -85 112 -38 20 -44 20 -140 8z m217 -2410 c188
-55 336 -209 406 -422 22 -66 26 -100 30 -242 3 -142 1 -177 -17 -252 -32
-138 -82 -229 -176 -323 -130 -131 -239 -175 -435 -175 -196 0 -305 44 -435
175 -92 91 -142 180 -175 310 -28 111 -28 345 0 464 61 255 253 443 490 481
75 12 246 3 312 -16z m2164 2 c152 -41 293 -163 368 -317 63 -131 76 -193 76
-380 0 -181 -17 -265 -77 -388 -27 -57 -58 -97 -117 -157 -129 -130 -240 -174
-436 -174 -193 0 -305 44 -431 170 -83 83 -126 152 -166 267 -24 70 -27 96
-31 249 -4 149 -2 182 17 255 32 130 92 241 176 324 101 101 185 142 345 169
46 8 224 -3 276 -18z"/>
</g>
</svg>
