<?xml version="1.0" standalone="no"?>
<!DOCTYPE svg PUBLIC "-//W3C//DTD SVG 20010904//EN"
 "http://www.w3.org/TR/2001/REC-SVG-20010904/DTD/svg10.dtd">
<svg version="1.0" xmlns="http://www.w3.org/2000/svg"
 width="1024.000000pt" height="1024.000000pt" viewBox="0 0 1024.000000 1024.000000"
 preserveAspectRatio="xMidYMid meet">
<metadata>
Created by potrace 1.16, written by Peter Selinger 2001-2019
</metadata>
<g transform="translate(0.000000,1024.000000) scale(0.100000,-0.100000)"
fill="#000000" stroke="none">
<path d="M360 5210 l0 -3500 4670 0 4670 0 0 3500 0 3500 -4670 0 -4670 0 0
-3500z m8340 2907 l0 -52 -1707 -1706 c-1963 -1961 -1756 -1774 -1963 -1774
-207 0 0 -187 -1962 1774 l-1708 1706 0 52 0 53 3670 0 3670 0 0 -53z m-6473
-1629 l1223 -1223 0 -55 0 -55 -1222 -1222 -1223 -1223 -52 0 -53 0 0 2500 0
2500 52 0 53 0 1222 -1222z m6933 -1278 l0 -2500 -52 0 -53 0 -1222 1222
-1223 1223 0 55 0 55 1222 1222 1223 1223 52 0 53 0 0 -2500z m-5000 -656
c313 -314 432 -400 647 -468 160 -50 286 -50 446 0 215 68 334 154 647 468
l245 246 55 0 55 0 1222 -1222 1223 -1223 0 -52 0 -53 -3670 0 -3670 0 0 52 0
53 1222 1222 1223 1223 55 0 55 0 245 -246z"/>
</g>
</svg>
