<?xml version="1.0" standalone="no"?>
<!DOCTYPE svg PUBLIC "-//W3C//DTD SVG 20010904//EN"
 "http://www.w3.org/TR/2001/REC-SVG-20010904/DTD/svg10.dtd">
<svg version="1.0" xmlns="http://www.w3.org/2000/svg"
 width="840.000000pt" height="1060.000000pt" viewBox="0 0 840.000000 1060.000000"
 preserveAspectRatio="xMidYMid meet">
<metadata>
Created by potrace 1.16, written by Peter Selinger 2001-2019
</metadata>
<g transform="translate(0.000000,1060.000000) scale(0.100000,-0.100000)"
fill="#000000" stroke="none">
<path d="M3930 10190 c-1430 -136 -2597 -1214 -2879 -2660 -47 -242 -55 -334
-56 -620 0 -300 7 -361 76 -635 239 -950 1060 -2431 2292 -4140 237 -328 766
-1030 828 -1099 6 -6 14 -4 21 6 7 9 81 103 164 210 326 417 758 1010 1096
1503 1004 1466 1646 2683 1858 3525 68 268 75 330 75 630 -1 285 -9 379 -56
620 -233 1202 -1107 2190 -2244 2535 -144 44 -350 88 -506 110 -136 19 -533
28 -669 15z m660 -435 c663 -104 1230 -413 1677 -914 486 -545 760 -1288 740
-2006 -3 -99 -13 -220 -22 -270 -133 -733 -629 -1756 -1508 -3110 -170 -263
-422 -633 -623 -916 -294 -414 -640 -879 -655 -879 -10 0 -342 443 -561 750
-737 1033 -1280 1903 -1672 2680 -301 594 -469 1041 -549 1460 -19 99 -22 148
-21 355 0 256 12 371 60 595 212 988 908 1795 1829 2123 203 72 381 114 605
143 144 18 557 12 700 -11z"/>
<path d="M4045 8734 c-140 -19 -193 -29 -280 -51 -501 -125 -946 -494 -1180
-978 -319 -657 -235 -1450 213 -2025 267 -341 642 -573 1072 -661 100 -21 143
-24 330 -24 184 0 231 4 328 23 1175 237 1811 1533 1303 2656 -88 194 -235
400 -403 561 -265 257 -574 415 -933 480 -85 15 -385 28 -450 19z m445 -442
c277 -65 475 -176 680 -382 178 -177 281 -342 355 -563 260 -782 -142 -1619
-898 -1872 -143 -48 -267 -67 -427 -67 -160 0 -284 19 -427 67 -757 253 -1158
1088 -898 1872 72 217 182 391 354 564 215 214 454 341 746 394 115 21 400 14
515 -13z"/>
<path d="M2625 2330 c-584 -125 -1034 -316 -1258 -533 -178 -172 -222 -351
-132 -534 245 -495 1509 -863 2965 -863 1472 0 2737 373 2973 878 41 88 48
193 17 281 -29 86 -74 152 -162 237 -163 157 -399 283 -753 400 -201 66 -647
177 -659 163 -14 -16 -246 -348 -246 -352 0 -3 39 -10 88 -17 630 -84 1101
-231 1267 -394 69 -67 92 -119 81 -179 -51 -272 -772 -490 -1916 -579 -223
-17 -1157 -17 -1380 0 -1024 79 -1721 265 -1884 500 -175 253 304 503 1219
638 99 14 182 27 183 29 8 7 -245 350 -259 352 -8 1 -72 -11 -144 -27z"/>
</g>
</svg>
