<?xml version="1.0" standalone="no"?>
<!DOCTYPE svg PUBLIC "-//W3C//DTD SVG 20010904//EN"
 "http://www.w3.org/TR/2001/REC-SVG-20010904/DTD/svg10.dtd">
<svg version="1.0" xmlns="http://www.w3.org/2000/svg"
 width="180.000000pt" height="180.000000pt" viewBox="0 0 180.000000 180.000000"
 preserveAspectRatio="xMidYMid meet">
<metadata>
Created by potrace 1.16, written by Peter Selinger 2001-2019
</metadata>
<g transform="translate(0.000000,180.000000) scale(0.100000,-0.100000)"
fill="#000000" stroke="none">
<path d="M778 1670 c-192 -35 -368 -136 -480 -274 -62 -78 -122 -193 -150
-292 -32 -112 -32 -286 0 -398 77 -270 278 -471 548 -548 112 -32 286 -32 398
0 270 77 471 278 548 548 32 112 32 286 0 398 -95 333 -377 557 -717 571 -55
2 -121 0 -147 -5z m286 -249 c165 -58 291 -185 348 -349 32 -94 32 -240 0
-334 -56 -164 -180 -288 -348 -350 -84 -30 -254 -30 -338 0 -168 62 -292 186
-348 350 -32 94 -32 240 0 334 65 188 219 324 417 368 62 14 203 4 269 -19z"/>
<path d="M825 1128 c-61 -17 -139 -100 -155 -166 -35 -148 73 -286 225 -285
131 0 228 97 228 228 0 155 -147 265 -298 223z"/>
</g>
</svg>
