<?xml version="1.0" standalone="no"?>
<!DOCTYPE svg PUBLIC "-//W3C//DTD SVG 20010904//EN"
 "http://www.w3.org/TR/2001/REC-SVG-20010904/DTD/svg10.dtd">
<svg version="1.0" xmlns="http://www.w3.org/2000/svg"
 width="225.000000pt" height="225.000000pt" viewBox="0 0 225.000000 225.000000"
 preserveAspectRatio="xMidYMid meet">
<metadata>
Created by potrace 1.16, written by Peter Selinger 2001-2019
</metadata>
<g transform="translate(0.000000,225.000000) scale(0.100000,-0.100000)"
fill="#000000" stroke="none">
<path d="M584 2231 c-23 -10 -52 -34 -65 -52 l-24 -34 0 -1020 0 -1020 24 -34
c13 -18 42 -42 65 -52 38 -17 75 -19 541 -19 466 0 503 2 541 19 23 10 52 34
65 52 l24 34 0 1020 0 1020 -24 34 c-13 18 -42 42 -65 52 -38 17 -75 19 -541
19 -466 0 -503 -2 -541 -19z m791 -121 l0 -35 -250 0 -250 0 -3 23 c-8 53 -12
53 255 50 l248 -3 0 -35z m265 -865 l0 -725 -515 0 -515 0 0 725 0 725 515 0
515 0 0 -725z m-444 -909 c45 -45 47 -92 5 -138 -43 -48 -109 -48 -152 0 -42
46 -40 93 5 138 26 26 42 34 71 34 29 0 45 -8 71 -34z"/>
</g>
</svg>
